<?xml version="1.0" standalone="no"?>
<!DOCTYPE svg PUBLIC "-//W3C//DTD SVG 20010904//EN"
 "http://www.w3.org/TR/2001/REC-SVG-20010904/DTD/svg10.dtd">
<svg version="1.0" xmlns="http://www.w3.org/2000/svg"
 width="450.000000pt" height="505.000000pt" viewBox="0 0 450.000000 505.000000"
 preserveAspectRatio="xMidYMid meet">
<metadata>
Created by potrace 1.10, written by Peter Selinger 2001-2011
</metadata>
<g transform="translate(0.000000,505.000000) scale(0.100000,-0.100000)"
fill="#000000" stroke="none">
<path d="M2185 5012 c-2 -3 -53 -6 -112 -9 -100 -3 -148 -11 -198 -33 -11 -5
-47 -11 -80 -14 -112 -10 -126 -13 -137 -24 -7 -7 -28 -12 -47 -12 -32 -1 -82
-11 -186 -39 -42 -12 -281 -137 -333 -175 -24 -17 -68 -52 -97 -78 -50 -43
-138 -106 -192 -136 -12 -7 -23 -18 -23 -23 0 -15 -52 -86 -100 -139 -100
-109 -175 -216 -239 -340 -19 -36 -40 -72 -47 -80 -7 -8 -22 -40 -34 -70 -12
-30 -25 -59 -30 -65 -5 -6 -18 -35 -30 -65 -36 -92 -71 -164 -88 -184 -10 -10
-17 -36 -18 -60 0 -22 -8 -70 -17 -106 -31 -118 -37 -150 -37 -186 0 -42 -15
-141 -35 -229 -8 -33 -19 -107 -25 -165 -6 -57 -14 -108 -17 -113 -3 -4 -4
-54 -3 -110 1 -56 1 -177 0 -268 -1 -110 2 -169 9 -174 6 -3 11 -32 11 -64 0
-32 4 -71 9 -87 11 -38 34 -162 36 -194 2 -40 15 -99 44 -190 15 -47 36 -112
45 -144 10 -33 31 -85 46 -115 16 -31 33 -68 39 -82 5 -14 27 -52 48 -84 21
-31 44 -68 51 -81 7 -14 33 -46 56 -72 24 -26 64 -72 88 -103 49 -60 288 -299
299 -299 4 0 26 -16 49 -35 23 -19 46 -35 51 -35 5 0 48 -26 97 -58 97 -63
428 -232 454 -232 6 0 33 -12 62 -26 60 -30 117 -52 166 -64 67 -16 165 -42
197 -51 17 -6 58 -14 89 -19 32 -5 61 -15 65 -21 4 -6 12 -8 18 -5 6 4 97 9
203 11 106 3 211 9 233 15 22 5 61 10 87 10 26 0 49 4 52 9 7 11 77 32 206 61
97 23 109 27 170 60 19 10 47 19 62 20 15 0 29 4 33 9 3 5 19 12 35 16 17 4
30 10 30 13 0 4 17 17 38 30 210 128 328 208 335 227 4 8 13 15 21 15 21 0
207 189 247 250 18 27 36 50 41 50 4 0 8 5 8 10 0 6 29 47 65 92 36 45 65 88
65 94 0 7 3 14 8 16 10 4 52 65 52 76 0 5 9 17 20 27 11 10 20 25 20 33 0 7 6
26 14 40 44 83 96 198 96 212 0 10 6 23 14 29 8 7 17 24 21 39 3 14 15 45 26
69 10 23 19 52 19 65 0 13 4 28 10 34 13 13 57 179 75 284 59 341 61 934 4
1185 -11 50 -27 126 -34 170 -23 134 -26 148 -39 180 -68 158 -86 212 -80 230
4 9 -1 21 -10 28 -9 7 -40 60 -70 119 -29 58 -63 119 -75 134 -11 14 -21 34
-21 42 0 9 -10 26 -22 39 -17 19 -20 26 -9 32 14 9 12 11 -50 61 -17 14 -90
84 -163 155 -198 194 -204 199 -324 270 -83 49 -142 89 -142 96 0 5 -7 9 -15
9 -8 0 -41 12 -72 27 -101 47 -177 80 -213 93 -19 7 -60 21 -90 32 -30 11 -71
24 -90 28 -19 5 -53 14 -75 20 -41 12 -101 25 -165 35 -19 3 -57 10 -85 15
-163 31 -358 53 -370 42z m-58 -113 c6 -6 32 -12 57 -13 25 -1 47 -6 49 -11 2
-12 -280 -33 -333 -25 -48 7 -22 23 44 26 77 5 140 15 151 25 12 12 19 11 32
-2z m278 -39 c3 -6 -4 -10 -17 -10 -18 0 -20 2 -8 10 19 12 18 12 25 0z m124
-5 c2 -3 -1 -11 -7 -17 -19 -19 -14 -28 17 -28 16 0 42 -7 57 -15 40 -21 64
-19 64 4 0 22 22 33 53 27 74 -15 76 -16 79 -43 2 -21 12 -31 41 -42 45 -17
70 -4 46 25 -12 15 -12 17 0 13 15 -5 26 -21 35 -51 5 -16 121 -78 146 -78 17
0 98 -39 105 -51 4 -5 17 -15 28 -20 12 -5 42 -22 67 -38 25 -16 54 -30 66
-30 11 -1 33 -14 49 -31 16 -16 33 -30 37 -30 11 0 130 -78 143 -95 6 -6 29
-24 52 -38 23 -14 44 -35 48 -46 3 -11 35 -43 71 -71 35 -29 64 -56 64 -61 0
-17 105 -148 128 -158 14 -7 22 -19 22 -36 0 -14 4 -25 9 -25 4 0 23 -33 41
-72 18 -40 38 -80 45 -88 7 -8 16 -31 20 -50 4 -19 17 -56 30 -81 13 -26 28
-73 35 -105 6 -33 20 -81 30 -109 10 -27 24 -81 30 -120 6 -38 16 -81 21 -95
5 -14 11 -52 14 -85 2 -33 11 -100 20 -149 9 -49 15 -134 14 -190 0 -56 5
-123 11 -151 16 -67 14 -269 -4 -355 -3 -19 -8 -64 -11 -100 -7 -120 -22 -235
-33 -256 -6 -12 -9 -23 -7 -26 2 -2 -7 -35 -20 -74 -14 -38 -25 -79 -25 -92 0
-12 -4 -30 -9 -40 -5 -9 -21 -46 -36 -82 -15 -36 -35 -74 -44 -85 -28 -34 -52
-85 -46 -95 3 -5 -3 -18 -15 -30 -11 -11 -20 -27 -20 -36 0 -9 -18 -41 -40
-73 -22 -31 -40 -60 -40 -64 0 -19 -74 -111 -160 -198 l-95 -97 -110 -5 c-60
-2 -151 0 -200 6 -76 9 -98 8 -137 -5 -44 -16 -49 -15 -85 3 -20 10 -42 19
-48 19 -6 0 -30 11 -55 24 -34 18 -46 31 -50 52 -3 20 -15 34 -37 44 -18 8
-33 20 -33 26 0 6 -9 19 -20 29 -11 10 -20 25 -20 34 0 9 -6 26 -14 37 -11 16
-14 67 -11 264 3 241 10 432 21 580 3 41 5 94 4 118 0 23 2 48 6 54 4 7 7 66
6 131 -2 78 1 124 9 133 8 10 8 14 0 14 -7 0 -11 37 -11 115 0 129 24 218 63
236 20 10 47 46 104 143 13 21 23 43 23 48 0 5 9 23 20 39 30 41 57 133 64
214 7 86 -15 249 -38 274 -9 10 -16 25 -16 34 0 8 -6 22 -12 29 -7 8 -19 23
-26 33 -7 11 -21 34 -32 50 -33 49 -27 59 29 51 59 -8 76 7 67 57 -6 33 -62
115 -119 175 l-31 32 31 -6 c18 -3 44 -3 58 0 31 8 34 42 5 79 -11 14 -20 32
-20 39 0 8 -12 25 -26 39 -22 20 -35 24 -87 23 -91 -1 -134 -20 -174 -77 -69
-97 -98 -234 -58 -263 10 -8 25 -14 32 -14 19 0 73 -41 73 -56 0 -6 7 -17 16
-25 13 -10 14 -28 9 -98 -3 -47 -8 -185 -11 -306 -2 -121 -7 -226 -9 -234 -8
-21 -35 7 -35 36 0 16 -7 27 -20 30 -11 3 -20 10 -20 15 0 6 -27 35 -61 66
-33 31 -72 75 -85 98 -13 22 -52 62 -87 87 -34 25 -82 66 -107 91 -24 25 -49
46 -55 46 -5 0 -15 8 -22 19 -11 17 -8 19 40 23 29 2 65 11 82 19 25 12 31 22
37 64 5 28 16 63 25 80 20 34 22 110 5 142 -11 20 -38 35 -127 72 -11 5 -34
15 -51 22 -50 23 -231 1 -304 -36 -73 -37 -90 -74 -50 -110 22 -20 21 -33 -11
-99 -24 -51 -24 -73 1 -86 17 -9 20 -21 20 -78 l0 -67 40 -13 c22 -6 47 -12
56 -12 11 0 14 -8 12 -27 -2 -21 -13 -33 -44 -49 -58 -29 -87 -53 -133 -112
-22 -28 -60 -71 -85 -97 -36 -37 -45 -54 -48 -87 -3 -36 -7 -43 -28 -48 -14
-3 -29 -16 -35 -28 -5 -12 -15 -22 -22 -22 -6 0 -15 -9 -18 -20 -3 -11 -14
-20 -24 -20 -9 0 -34 -9 -56 -20 -22 -11 -49 -20 -62 -20 -12 0 -24 -4 -27 -9
-3 -5 -30 -15 -58 -21 -29 -7 -57 -16 -63 -20 -5 -4 -44 -17 -85 -30 -95 -29
-153 -55 -170 -75 -7 -8 -18 -15 -24 -15 -6 0 -22 -9 -36 -20 -14 -11 -31 -20
-38 -20 -7 0 -33 -21 -57 -46 -37 -38 -45 -52 -44 -82 0 -61 24 -175 44 -212
10 -19 24 -64 31 -100 18 -92 38 -167 47 -176 4 -4 7 -16 7 -26 0 -10 11 -51
25 -90 14 -39 25 -84 25 -99 0 -15 7 -49 15 -75 26 -91 66 -249 82 -324 8 -41
19 -79 24 -85 5 -5 9 -22 9 -37 0 -37 53 -235 73 -274 9 -17 14 -34 11 -37 -3
-3 6 -13 21 -23 23 -15 32 -16 58 -6 26 10 35 9 64 -9 53 -33 42 -45 -36 -40
-19 2 -44 -3 -57 -10 -21 -11 -27 -10 -47 8 -20 19 -76 27 -91 13 -5 -6 -132
-4 -359 5 -145 6 -171 5 -192 -9 -14 -9 -25 -23 -25 -31 0 -22 -13 -18 -40 10
-13 14 -34 25 -48 25 -21 0 -23 3 -18 25 4 15 0 39 -9 58 l-16 32 31 -35 c16
-19 30 -38 30 -42 0 -11 47 -10 54 0 8 13 -41 105 -68 127 -13 11 -29 38 -35
60 -6 23 -19 50 -30 61 -10 11 -22 31 -26 45 -4 13 -22 40 -39 59 -37 40 -62
111 -77 220 -6 41 -17 93 -26 115 -8 22 -18 58 -23 80 -4 22 -15 72 -24 110
-22 100 -58 457 -54 540 2 57 0 70 -12 70 -12 0 -16 -25 -20 -145 -4 -108 -7
-136 -13 -110 -5 19 -9 53 -9 75 0 154 4 249 12 268 l9 22 0 -22 c1 -12 5 -24
10 -27 16 -10 28 18 35 79 3 33 11 94 16 135 6 41 13 118 16 170 3 52 10 99
15 104 5 6 9 22 9 36 0 15 6 46 14 71 16 53 39 132 61 214 24 86 81 223 115
273 15 23 36 68 46 100 19 64 59 134 116 203 21 26 38 51 38 56 0 5 10 19 23
30 38 36 66 69 118 140 70 97 223 233 261 233 16 0 27 4 24 9 -6 10 96 91 114
91 6 0 42 18 78 39 37 21 85 45 107 52 22 7 52 21 66 31 14 9 44 22 65 27 21
5 53 14 69 20 176 61 189 63 315 66 119 2 237 11 270 20 8 3 51 1 95 -4 44 -4
97 -6 118 -3 34 4 37 7 37 34 0 29 2 30 32 24 17 -3 34 -8 37 -11z m-691 -7
c-3 -7 -22 -14 -44 -15 -39 -3 -39 -3 -14 12 31 18 63 19 58 3z m-91 -25 c-4
-3 -10 -3 -14 0 -3 4 0 7 7 7 7 0 10 -3 7 -7z m-180 -60 c-4 -3 -10 -3 -14 0
-3 4 0 7 7 7 7 0 10 -3 7 -7z m1383 -13 c0 -5 -2 -10 -4 -10 -3 0 -8 5 -11 10
-3 6 -1 10 4 10 6 0 11 -4 11 -10z m-1475 -19 c-3 -5 -22 -15 -43 -22 -20 -6
-48 -18 -62 -25 -52 -27 -101 -46 -106 -41 -6 6 95 66 141 84 37 14 78 16 70
4z m1550 -1 c3 -5 -3 -10 -14 -10 -11 0 -23 5 -26 10 -3 6 3 10 14 10 11 0 23
-4 26 -10z m82 -36 c-3 -3 -12 -4 -19 -1 -8 3 -5 6 6 6 11 1 17 -2 13 -5z
m-1878 -73 c-66 -51 -161 -111 -170 -106 -16 10 -10 25 14 35 23 10 32 16 101
62 49 33 94 40 55 9z m-219 -138 c0 -10 -192 -193 -202 -193 -8 0 -9 -3 -12
-32 -2 -18 -36 -23 -36 -5 0 18 218 237 236 237 8 0 14 -3 14 -7z m2665 -134
c40 -40 43 -68 3 -31 -13 11 -39 35 -58 52 -32 29 -33 31 -10 25 14 -4 43 -24
65 -46z m-2925 -123 c0 -3 -4 -8 -10 -11 -5 -3 -10 -1 -10 4 0 6 5 11 10 11 6
0 10 -2 10 -4z m-95 -140 c-32 -54 -45 -65 -45 -37 0 20 58 96 67 87 3 -2 -7
-25 -22 -50z m2264 28 c39 -20 31 -34 -19 -34 -29 0 -42 -5 -50 -20 -6 -11 -8
-25 -4 -31 3 -6 -1 -16 -10 -22 -9 -7 -17 -29 -18 -49 -3 -44 -10 -47 -43 -13
-29 28 -30 40 -11 86 16 39 45 68 84 86 36 15 34 15 71 -3z m-2364 -174 c-19
-38 -35 -79 -35 -90 0 -11 -5 -20 -11 -20 -5 0 -22 -24 -36 -52 -43 -90 -54
-108 -64 -108 -6 0 -8 10 -4 23 9 31 84 179 101 198 8 8 14 20 14 25 0 11 59
94 66 94 2 0 -12 -31 -31 -70z m1679 9 c8 -12 29 -30 46 -41 18 -10 30 -21 27
-24 -5 -6 -38 11 -76 39 -13 9 -32 17 -42 17 -11 0 -19 7 -19 15 0 23 46 18
64 -6z m-34 -79 c0 -5 -7 -10 -15 -10 -8 0 -15 5 -15 10 0 6 7 10 15 10 8 0
15 -4 15 -10z m250 -39 c0 -41 -4 -51 -26 -66 -25 -16 -90 -13 -79 5 3 4 13 6
23 3 10 -2 27 6 41 21 21 22 23 29 13 50 -11 25 -7 36 15 36 9 0 13 -15 13
-49z m1634 -8 c7 -16 21 -52 30 -82 19 -65 31 -80 56 -74 23 6 27 -12 5 -21
-19 -7 -19 -53 0 -90 8 -15 15 -33 15 -40 0 -18 -35 45 -54 99 -10 28 -22 59
-26 70 -5 11 -18 45 -28 75 -10 30 -22 63 -27 73 -12 29 13 20 29 -10z m-1946
-31 c18 -16 32 -33 32 -39 0 -5 9 -18 20 -28 21 -19 27 -55 10 -55 -5 0 -10
-20 -10 -44 0 -39 -3 -45 -28 -54 -31 -11 -79 -5 -100 11 -10 8 -9 13 3 27 8
9 12 20 8 24 -5 4 -8 24 -8 44 0 29 -5 39 -22 47 -22 9 -30 34 -17 48 4 4 20
-5 36 -18 32 -27 62 -32 74 -13 9 14 -43 58 -68 58 -10 0 -18 5 -18 10 0 21
57 9 88 -18z m803 -75 l22 -32 -31 29 c-18 17 -32 34 -32 38 0 15 18 0 41 -35z
m-536 -37 c-3 -5 -15 -10 -26 -10 -10 0 -19 5 -19 10 0 6 12 10 26 10 14 0 23
-4 19 -10z m572 -17 c-4 -3 -10 -3 -14 0 -3 4 0 7 7 7 7 0 10 -3 7 -7z m32
-63 c0 -8 -6 -4 -13 10 -8 14 -12 29 -8 34 6 10 20 -20 21 -44z m-2619 1 c0
-6 -4 -13 -10 -16 -5 -3 -10 1 -10 9 0 9 5 16 10 16 6 0 10 -4 10 -9z m2550
-35 c0 -3 -4 -8 -10 -11 -5 -3 -10 -1 -10 4 0 6 5 11 10 11 6 0 10 -2 10 -4z
m-710 -16 c0 -5 8 -10 18 -10 10 0 31 -13 47 -29 15 -17 37 -31 49 -33 11 -2
22 -10 24 -19 2 -12 -8 -17 -47 -22 -27 -3 -68 -15 -91 -27 -24 -12 -49 -18
-58 -15 -14 6 -13 8 7 16 18 7 22 14 16 32 -16 53 -16 68 -1 92 17 25 36 33
36 15z m-1885 -92 c-4 -18 -14 -44 -21 -58 -14 -24 -14 -23 -8 15 7 41 20 75
30 75 3 0 2 -15 -1 -32z m2715 -145 c8 -81 7 -99 -11 -150 -11 -32 -31 -69
-43 -83 -12 -14 -28 -37 -36 -52 -17 -36 -58 -64 -72 -50 -12 12 -12 29 -5
139 5 83 12 99 33 82 11 -9 17 -5 29 24 8 20 15 45 15 55 0 25 34 120 49 135
6 6 11 22 12 37 2 45 19 -36 29 -137z m-96 72 c-10 -54 -15 -65 -30 -65 -16 0
-18 28 -5 62 5 13 12 32 16 43 10 31 26 -3 19 -40z m-819 15 c-3 -5 -17 -10
-31 -10 -14 0 -22 4 -19 10 3 6 17 10 31 10 14 0 22 -4 19 -10z m327 -85 c3
-41 2 -91 -1 -111 l-6 -37 -39 43 c-32 35 -37 47 -32 72 3 17 6 38 6 48 0 25
38 70 54 64 9 -3 15 -30 18 -79z m-107 -40 c0 -98 -2 -114 -15 -109 -29 11
-35 9 -38 -13 -2 -13 7 -31 24 -47 16 -14 25 -28 22 -32 -9 -8 -78 15 -78 26
0 15 -51 70 -66 70 -9 0 -14 -11 -14 -30 0 -37 -17 -39 -26 -3 -4 15 -13 38
-20 52 -16 30 -18 57 -5 66 6 3 14 -3 20 -12 10 -17 12 -17 28 4 10 12 29 23
42 25 14 2 25 11 27 21 4 26 12 33 26 19 7 -7 15 -12 18 -12 10 0 30 48 30 70
0 11 6 20 13 20 9 0 12 -30 12 -115z m-2058 68 c-4 -3 -7 0 -7 7 0 7 3 10 7 7
3 -4 3 -10 0 -14z m1980 -5 c-3 -8 -6 -5 -6 6 -1 11 2 17 5 13 3 -3 4 -12 1
-19z m-1977 -11 c0 -1 -7 -34 -16 -72 -9 -39 -18 -104 -21 -145 -3 -41 -9 -80
-13 -85 -5 -6 -11 -41 -14 -79 -3 -37 -11 -87 -17 -109 -11 -39 -12 -40 -20
-19 -5 14 -5 40 1 65 6 23 19 96 30 162 15 91 44 255 49 283 1 3 21 3 21 -1z
m2246 -52 c3 -14 15 -30 25 -35 11 -7 16 -16 12 -26 -5 -13 -2 -15 14 -10 15
5 22 1 26 -13 3 -11 0 -25 -7 -30 -6 -5 -20 -30 -31 -55 -11 -25 -24 -44 -30
-42 -5 1 -10 32 -11 67 0 46 -6 73 -21 97 -22 35 -20 72 3 72 7 0 16 -11 20
-25z m-516 -10 c0 -21 19 -28 35 -15 13 10 15 8 15 -14 0 -16 -14 -41 -35 -65
-19 -21 -35 -46 -35 -55 0 -9 -7 -28 -16 -42 l-17 -25 -17 28 c-29 48 -30 80
-4 104 13 12 31 41 40 65 15 41 34 51 34 19z m-94 -41 c-3 -8 -14 -14 -24 -14
-12 0 -21 -11 -27 -32 -6 -19 -18 -34 -28 -36 -15 -3 -18 0 -12 18 9 29 51 90
73 106 15 11 17 10 20 -7 2 -11 1 -27 -2 -35z m2328 8 c-1 -7 -2 -21 -2 -33
-3 -31 -22 -12 -22 22 0 20 4 29 13 27 6 -3 12 -10 11 -16z m16 -122 c11 -43
4 -73 -11 -49 -9 14 -13 89 -4 89 2 0 9 -18 15 -40z m-2162 21 c10 -6 11 -13
1 -34 -15 -34 -27 -34 -35 -3 -9 38 6 55 34 37z m320 -14 c12 -13 28 -48 36
-77 13 -50 13 -55 -7 -82 -37 -50 -46 -38 -50 70 -3 65 -6 76 -27 93 l-25 19
26 0 c14 0 35 -10 47 -23z m280 -43 c31 10 65 -64 58 -122 -4 -26 -7 -60 -9
-76 -1 -16 -6 -30 -12 -31 -5 -2 -36 26 -69 61 -49 53 -60 72 -68 115 -8 46
-7 54 12 74 l21 23 25 -25 c15 -15 31 -22 42 -19z m-880 -96 c11 -40 -8 -61
-45 -52 -17 5 -24 3 -23 -7 5 -34 -2 -50 -25 -59 -14 -5 -28 -16 -31 -24 -7
-19 -23 -24 -124 -43 -90 -16 -282 -26 -314 -16 -17 5 -12 10 25 29 24 13 52
23 61 24 10 0 40 14 66 30 27 17 59 30 71 30 12 0 35 7 50 15 16 8 48 17 72
21 l44 7 -24 -23 c-21 -21 -22 -24 -7 -35 26 -19 63 -6 92 34 36 48 86 101 96
101 4 0 11 -15 16 -32z m2449 -15 c-3 -10 -5 -4 -5 12 0 17 2 24 5 18 2 -7 2
-21 0 -30z m-2111 -90 c4 -13 1 -35 -5 -47 -7 -12 -11 -38 -9 -57 l3 -34 20
29 c21 31 28 67 27 135 -1 42 0 44 16 27 23 -23 23 -138 0 -182 -9 -16 -13
-36 -9 -42 10 -17 39 -5 46 19 11 32 24 21 27 -23 3 -48 31 -66 41 -27 9 33
27 12 27 -31 0 -31 -5 -43 -27 -57 -14 -10 -38 -30 -54 -45 -15 -16 -30 -28
-33 -28 -3 0 -17 18 -31 40 -14 22 -31 40 -38 40 -18 0 -40 71 -27 84 22 22
10 35 -24 29 -88 -14 -117 25 -120 158 l-1 90 30 -1 c48 -3 55 -1 55 17 0 24
78 -61 86 -94z m94 97 c8 -5 11 -12 8 -15 -4 -4 -17 0 -30 9 -24 17 -5 23 22
6z m88 -48 c25 -25 29 -102 6 -102 -11 0 -14 5 -10 16 4 9 0 24 -8 33 -20 22
-31 71 -17 71 6 0 19 -8 29 -18z m-382 -8 c-3 -9 -6 -24 -6 -35 0 -21 -8 -23
-29 -10 -11 7 -10 13 4 35 19 28 41 36 31 10z m673 -25 c17 -17 31 -39 31 -50
0 -10 4 -19 8 -19 5 0 14 -11 20 -25 6 -14 17 -24 24 -23 14 3 39 -113 32
-152 -12 -73 -25 -315 -29 -545 -4 -221 -7 -314 -14 -370 -2 -13 -23 22 -37
63 -7 18 -8 35 -3 38 15 9 10 41 -11 79 -15 27 -20 54 -20 110 0 40 -4 76 -9
79 -8 5 -28 247 -24 286 3 30 3 137 0 238 -3 104 -13 129 -44 118 -15 -6 -23
16 -16 43 7 27 20 27 28 1 13 -42 27 -6 25 64 -3 78 -2 96 4 96 3 0 18 -14 35
-31z m-133 -92 c-3 -38 -7 -71 -9 -74 -7 -7 -87 19 -87 28 0 5 9 13 20 19 12
6 20 21 20 35 0 13 10 43 22 66 21 40 22 41 30 18 5 -12 7 -54 4 -92z m54 96
c0 -20 -17 -50 -23 -43 -2 3 -7 17 -11 33 -5 23 -3 27 14 27 12 0 20 -7 20
-17z m1727 -65 c-3 -7 -5 -2 -5 12 0 14 2 19 5 13 2 -7 2 -19 0 -25z m-4087
-103 c0 -30 -4 -55 -10 -55 -11 0 -14 93 -3 103 12 12 13 8 13 -48z m996 46
c-3 -5 -16 -11 -28 -14 -13 -2 -31 -8 -40 -12 -26 -11 -22 8 5 21 27 14 70 17
63 5z m574 -7 c0 -3 -5 -14 -10 -25 -6 -11 -13 -34 -15 -52 -13 -91 -17 -114
-25 -132 -5 -11 -11 -42 -14 -70 -3 -27 -12 -99 -21 -160 -16 -110 -24 -593
-10 -615 8 -13 17 -586 9 -632 -5 -34 -8 -36 -47 -40 -45 -5 -87 5 -87 21 0
19 51 70 73 73 30 4 33 37 8 111 -36 110 -75 267 -112 452 -7 33 -16 64 -21
70 -4 5 -8 26 -8 47 0 20 -6 57 -14 80 -8 24 -18 67 -22 96 -4 29 -11 55 -15
58 -5 3 -9 16 -9 30 0 14 -6 35 -14 47 -17 26 -73 191 -87 257 -6 25 -14 63
-20 85 -5 22 -12 56 -15 75 -3 19 -13 50 -21 69 -14 32 -14 35 1 47 10 7 44
15 76 19 32 4 71 14 86 22 16 9 49 19 74 24 69 12 144 30 152 38 9 8 108 13
108 5z m2530 -51 c0 -7 -4 -13 -10 -13 -5 0 -10 12 -10 28 0 21 2 24 10 12 5
-8 10 -21 10 -27z m-3214 12 c-8 -8 -18 -15 -22 -15 -3 0 -1 7 6 15 7 8 17 15
22 15 5 0 3 -7 -6 -15z m94 -35 c-37 -28 -50 -24 -15 5 16 13 32 22 34 19 3
-3 -5 -14 -19 -24z m-135 0 c-3 -5 -11 -10 -16 -10 -6 0 -7 5 -4 10 3 6 11 10
16 10 6 0 7 -4 4 -10z m977 -58 c20 -21 57 -49 82 -63 25 -13 46 -27 46 -32 0
-12 58 -69 85 -83 19 -10 33 -10 52 -3 34 13 43 3 15 -17 -29 -20 -28 -34 3
-34 22 0 25 -3 19 -24 -5 -20 -2 -25 18 -28 17 -2 23 -9 23 -26 0 -18 -12 -31
-50 -53 -27 -15 -63 -28 -80 -28 -33 -1 -115 33 -115 47 0 5 -25 35 -55 68
-30 32 -55 63 -55 68 0 6 -9 20 -21 32 -21 22 -73 154 -64 162 12 13 33 -24
39 -67 9 -70 52 -125 175 -223 48 -38 81 -58 95 -56 31 4 25 22 -12 34 -36 11
-59 30 -49 41 4 4 13 1 19 -5 16 -16 58 -15 58 1 0 20 -21 37 -46 37 -27 0
-41 30 -19 42 19 11 20 38 2 38 -23 0 -217 176 -217 197 0 22 14 15 52 -25z
m459 -17 l34 0 1 -55 c0 -79 1 -80 34 -91 31 -11 39 -36 19 -56 -9 -9 -15 -8
-26 2 -7 8 -20 12 -28 9 -18 -7 -35 26 -35 67 0 19 -10 46 -25 65 -16 20 -25
45 -24 66 0 27 2 29 8 13 6 -15 17 -20 42 -20z m1822 -12 c3 -24 1 -43 -4 -43
-5 0 -9 21 -9 47 0 56 5 54 13 -4z m-2420 -18 c5 -17 13 -38 18 -47 5 -9 11
-36 15 -60 12 -83 111 -220 213 -296 25 -19 29 -28 24 -52 -3 -18 0 -36 7 -45
12 -15 10 -64 -4 -97 -7 -16 23 -58 43 -58 15 0 20 54 8 98 -10 38 -9 48 12
86 17 32 30 45 52 50 19 3 29 12 29 23 1 10 17 29 37 41 34 22 38 22 49 7 12
-17 10 -68 -6 -140 -19 -85 -22 -105 -11 -105 12 0 35 42 45 83 8 32 28 37 22
5 -3 -13 -8 -40 -11 -60 -6 -39 -74 -135 -103 -145 -9 -3 -24 -12 -34 -20 -14
-13 -21 -12 -50 3 -18 9 -37 23 -41 30 -4 8 -14 14 -22 14 -19 0 -99 94 -126
149 -13 25 -35 64 -50 86 -14 22 -30 51 -34 65 -4 14 -21 52 -36 84 -16 33
-29 65 -29 71 0 7 -8 23 -19 36 -15 20 -17 33 -11 79 7 47 5 58 -11 76 -25 27
-26 77 -2 72 10 -2 22 -17 26 -33z m497 -30 c-7 -8 -10 -24 -7 -34 5 -21 -19
-64 -32 -56 -5 2 -6 17 -3 32 5 31 41 87 50 79 2 -3 -1 -12 -8 -21z m-1248
-47 c-5 -20 -5 -20 -18 3 -14 28 -8 45 11 29 7 -6 10 -20 7 -32z m53 12 c3 -5
1 -10 -4 -10 -6 0 -11 5 -11 10 0 6 2 10 4 10 3 0 8 -4 11 -10z m3133 -36 c6
-68 -35 -454 -48 -454 -10 0 -1 152 11 200 5 19 9 95 9 168 0 103 3 133 13
130 6 -3 13 -22 15 -44z m-2521 14 c-3 -8 -6 -5 -6 6 -1 11 2 17 5 13 3 -3 4
-12 1 -19z m613 -29 c0 -11 5 -29 10 -40 12 -21 7 -24 -19 -10 -13 7 -16 18
-13 40 5 35 22 42 22 10z m-283 -26 c-4 -3 -7 0 -7 7 0 7 3 10 7 7 3 -4 3 -10
0 -14z m-917 -12 c0 -13 -27 -21 -46 -14 -13 5 -13 7 -2 14 17 11 48 11 48 0z
m600 -57 c7 -18 15 -24 28 -20 12 4 26 -1 37 -14 18 -19 18 -20 -1 -20 -11 0
-25 5 -32 12 -16 16 -34 -2 -37 -39 -4 -58 -5 -59 -20 -39 -15 20 -20 100 -9
130 9 24 23 19 34 -10z m340 6 c8 -5 11 -12 7 -16 -4 -4 -15 0 -24 9 -18 18
-8 23 17 7z m-948 -137 c19 -101 20 -113 10 -113 -14 0 -31 59 -39 130 -4 44
-3 53 7 43 7 -7 17 -34 22 -60z m-93 -78 l-1 -40 -13 30 c-7 17 -16 53 -20 80
l-7 50 21 -40 c12 -22 21 -56 20 -80z m791 72 c0 -5 -4 -5 -10 -2 -5 3 -10 14
-10 23 0 15 2 15 10 2 5 -8 10 -19 10 -23z m-1691 -49 c1 -20 -3 -39 -8 -42
-12 -8 -23 57 -15 91 7 24 8 25 15 8 4 -11 8 -37 8 -57z m2355 -10 c-1 -46 -5
-90 -7 -98 -3 -8 -7 -22 -10 -30 -2 -8 -8 5 -11 30 -5 26 -3 57 3 73 6 16 11
46 11 68 0 21 4 39 8 39 4 0 7 -37 6 -82z m-1240 27 c3 -9 0 -15 -9 -15 -8 0
-15 7 -15 15 0 8 4 15 9 15 5 0 11 -7 15 -15z m496 -65 c0 -32 7 -74 15 -93 8
-20 15 -47 15 -59 0 -13 7 -36 15 -52 8 -15 15 -41 15 -57 0 -16 4 -37 9 -47
5 -9 14 -35 21 -57 6 -22 20 -59 31 -82 10 -24 19 -51 19 -60 0 -10 7 -40 15
-67 17 -56 11 -77 -7 -26 -6 18 -28 66 -49 106 -21 39 -45 97 -54 128 -17 57
-29 74 -40 56 -9 -15 13 -108 36 -148 10 -18 19 -38 19 -44 0 -26 72 -157 107
-193 21 -23 45 -51 53 -63 8 -13 35 -35 60 -49 25 -14 57 -36 71 -50 45 -41
101 -64 169 -70 36 -2 75 -9 87 -15 17 -8 30 -8 48 0 31 15 35 15 35 2 0 -15
-80 -52 -100 -47 -23 6 -52 -10 -30 -16 77 -23 100 -26 124 -17 21 8 32 5 61
-14 19 -13 31 -26 28 -30 -9 -9 -94 -7 -129 3 -18 5 -37 5 -47 -1 -13 -7 -25
-3 -46 11 -16 12 -34 21 -40 21 -16 0 -81 43 -81 54 0 4 6 6 13 3 6 -3 20 -8
30 -12 28 -11 20 13 -10 31 -16 9 -51 32 -79 51 -39 25 -58 32 -77 28 -21 -6
-27 -2 -39 22 -7 15 -30 37 -51 48 -21 11 -40 30 -43 42 -3 11 -17 31 -30 44
-13 12 -24 28 -24 34 0 7 -22 54 -48 106 -27 52 -54 114 -61 139 -7 25 -17 59
-23 75 -36 108 -40 124 -33 141 6 16 9 14 16 -13 11 -36 26 -50 41 -35 7 7 7
21 0 44 -24 76 -50 236 -45 271 4 31 8 35 19 26 9 -7 14 -32 14 -69z m-660 33
c0 -41 -13 -35 -24 10 -5 20 -3 27 9 27 11 0 15 -11 15 -37z m697 30 c-4 -3
-10 -3 -14 0 -3 4 0 7 7 7 7 0 10 -3 7 -7z m83 -33 c0 -21 54 -131 91 -185 31
-45 123 -136 155 -153 30 -16 107 -42 124 -42 8 0 26 9 40 20 27 21 40 25 40
11 0 -14 -90 -61 -117 -61 -13 0 -43 9 -66 21 -66 33 -97 40 -97 23 0 -8 4
-14 10 -14 5 0 26 -11 46 -25 20 -14 50 -25 65 -25 16 0 29 -4 29 -10 0 -17
-69 -11 -110 10 -22 11 -54 36 -71 55 -18 19 -38 35 -46 35 -7 0 -13 2 -13 4
0 2 -3 11 -6 20 -10 25 18 19 45 -10 16 -16 27 -22 34 -15 9 9 -14 44 -72 106
-11 11 -22 34 -26 52 -3 17 -13 37 -21 44 -8 6 -14 18 -14 25 0 8 -13 43 -29
79 -16 35 -27 66 -23 69 9 9 32 -15 32 -34z m510 -16 c0 -8 -5 -12 -10 -9 -6
4 -8 11 -5 16 9 14 15 11 15 -7z m-691 -81 c0 -43 -3 -52 -9 -37 -12 30 -19
82 -12 88 15 16 22 1 21 -51z m-1539 -9 c5 -13 7 -39 3 -56 l-7 -33 -12 30
c-16 37 -18 99 -3 90 5 -4 14 -18 19 -31z m960 10 c0 -8 -4 -12 -10 -9 -5 3
-10 10 -10 16 0 5 5 9 10 9 6 0 10 -7 10 -16z m110 0 c0 -8 -4 -12 -10 -9 -5
3 -10 10 -10 16 0 5 5 9 10 9 6 0 10 -7 10 -16z m-50 -19 c0 -8 -4 -15 -10
-15 -5 0 -10 7 -10 15 0 8 5 15 10 15 6 0 10 -7 10 -15z m696 -50 c8 -20 26
-41 39 -47 26 -12 29 -17 19 -42 -10 -25 -24 -19 -40 17 -8 17 -24 44 -35 59
-12 14 -18 31 -15 37 11 17 16 13 32 -24z m2333 -47 c-1 -35 -5 -66 -10 -69
-5 -3 -10 -18 -12 -35 -2 -16 -6 -36 -9 -44 -3 -8 -11 -35 -17 -60 -35 -129
-49 -166 -62 -153 -11 11 0 61 22 105 4 9 14 47 20 85 7 37 16 72 21 78 4 5 8
21 8 35 0 26 28 120 36 120 2 0 4 -28 3 -62z m-1714 9 c22 -17 12 -37 -20 -37
-27 0 -39 14 -31 35 7 19 27 19 51 2z m-2319 -52 c7 -19 14 -51 14 -72 0 -21
6 -50 14 -65 8 -15 14 -47 14 -72 0 -25 6 -62 12 -81 14 -41 6 -60 -9 -24 -9
24 -47 185 -56 244 -3 17 -8 47 -11 68 -8 46 3 48 22 2z m1494 25 c0 -5 -2
-10 -4 -10 -3 0 -8 5 -11 10 -3 6 -1 10 4 10 6 0 11 -4 11 -10z m-496 -61 c-3
-5 -14 -5 -25 1 -26 14 -24 18 6 12 14 -2 22 -8 19 -13z m116 15 c0 -14 -84
-127 -87 -117 -5 15 23 71 50 101 19 21 37 29 37 16z m400 -84 c0 -40 5 -72
11 -76 8 -4 10 -27 6 -66 -4 -42 -1 -70 10 -96 16 -36 28 -93 39 -177 7 -49
10 -55 35 -55 28 0 23 -15 -6 -16 -20 -2 -27 5 -40 47 -16 48 -28 59 -40 39
-12 -19 -24 -10 -29 23 -3 17 -8 109 -10 203 -3 94 -8 179 -12 188 -8 20 15
68 28 60 4 -3 8 -36 8 -74z m275 -9 c10 -26 -5 -24 -35 4 -17 16 -30 32 -30
36 0 12 59 -24 65 -40z m592 -17 c13 -14 20 -31 16 -37 -4 -7 -7 -21 -8 -31 0
-38 -24 -27 -35 16 -6 24 -13 51 -16 61 -8 25 15 21 43 -9z m-537 -44 c10 0
22 -4 25 -10 6 -9 50 -31 87 -43 10 -4 45 -1 78 5 50 8 63 15 77 38 15 26 51
46 62 34 6 -6 -26 -62 -52 -91 -25 -28 -5 -31 23 -3 33 33 50 26 48 -21 -1
-39 -3 -41 -29 -35 -22 4 -29 1 -34 -14 -5 -17 -15 -20 -66 -20 -33 0 -59 4
-59 10 0 6 15 10 33 10 31 0 57 14 57 32 0 4 -35 8 -77 7 -43 0 -96 3 -118 7
l-40 6 25 -19 c14 -11 42 -23 63 -27 20 -4 37 -11 37 -16 0 -12 -6 -12 -52 1
-21 5 -38 14 -38 19 0 6 -9 10 -20 10 -16 0 -20 7 -20 37 0 23 -9 48 -25 69
-14 18 -25 36 -25 41 0 4 5 0 11 -9 5 -10 19 -18 29 -18z m468 -77 c-6 -8 -6
-18 1 -32 15 -27 14 -56 -3 -70 -11 -9 -16 -5 -26 19 -10 23 -10 34 -1 43 6 6
11 31 11 57 1 44 1 44 15 20 9 -17 10 -29 3 -37z m-1248 -24 c0 -11 -4 -17
-10 -14 -5 3 -10 15 -10 26 0 11 5 17 10 14 6 -3 10 -15 10 -26z m750 -75 c0
-8 -4 -12 -10 -9 -5 3 -10 13 -10 21 0 8 5 12 10 9 6 -3 10 -13 10 -21z m-740
-5 c0 -11 -4 -18 -10 -14 -5 3 -7 12 -3 20 7 21 13 19 13 -6z m167 4 c-4 -3
-7 0 -7 7 0 7 3 10 7 7 3 -4 3 -10 0 -14z m2673 -7 c0 -3 -5 -8 -12 -12 -7 -4
-8 -3 -4 4 7 12 16 16 16 8z m-2764 -66 c7 -32 6 -34 -9 -21 -9 7 -17 27 -17
44 0 40 17 24 26 -23z m114 7 c0 -24 -3 -28 -10 -17 -13 20 -13 63 0 55 6 -3
10 -21 10 -38z m-218 -41 c-8 -14 -22 18 -21 49 l0 30 13 -35 c7 -19 10 -39 8
-44z m2845 47 c-4 -3 -7 0 -7 7 0 7 3 10 7 7 3 -4 3 -10 0 -14z m-2788 -16 c7
-13 11 -41 9 -63 l-4 -39 -13 30 c-29 68 -23 129 8 72z m1301 8 c0 -8 -2 -15
-4 -15 -2 0 -6 7 -10 15 -3 8 -1 15 4 15 6 0 10 -7 10 -15z m47 -7 c-3 -8 -6
-5 -6 6 -1 11 2 17 5 13 3 -3 4 -12 1 -19z m-318 -1 c40 -17 59 -54 67 -126 8
-83 11 -87 34 -66 15 14 20 31 20 69 0 61 17 52 26 -15 6 -43 4 -47 -30 -77
-43 -38 -60 -39 -146 -11 -85 28 -94 33 -98 53 -3 14 0 15 22 5 13 -6 32 -9
41 -5 14 5 15 9 4 22 -10 13 -10 17 1 24 16 10 6 40 -15 40 -8 0 -15 5 -15 10
0 6 8 10 18 8 12 -2 18 5 20 27 3 34 9 55 16 55 2 0 18 -6 35 -13z m-289 -23
c0 -8 -4 -12 -10 -9 -5 3 -10 13 -10 21 0 8 5 12 10 9 6 -3 10 -13 10 -21z
m62 -14 c-1 -7 4 -22 11 -34 18 -26 32 -86 20 -86 -9 0 -38 68 -49 114 -5 22
-4 27 7 24 8 -3 13 -11 11 -18z m-1772 -15 c5 -14 12 -38 15 -53 5 -24 4 -24
-14 8 -19 33 -27 70 -16 70 3 0 10 -11 15 -25z m1869 -8 c27 -2 28 -17 1 -17
-25 0 -26 -25 -2 -39 14 -8 15 -12 4 -23 -15 -15 -27 0 -49 62 -17 48 -16 56
6 36 10 -9 28 -18 40 -19z m1851 -7 c-6 -12 -14 -19 -17 -17 -2 3 1 15 7 27 6
12 14 19 17 17 2 -3 -1 -15 -7 -27z m-2630 -2 c0 -19 -2 -20 -10 -8 -13 19
-13 30 0 30 6 0 10 -10 10 -22z m287 -65 c-4 -3 -7 0 -7 7 0 7 3 10 7 7 3 -4
3 -10 0 -14z m-209 -28 c2 -16 1 -17 -7 -5 -8 12 -14 12 -34 1 -25 -13 -67 -7
-67 9 0 9 49 18 85 16 12 -1 21 -9 23 -21z m402 -23 c1 -36 32 -77 54 -69 12
5 16 0 16 -22 0 -19 11 -38 38 -63 20 -19 48 -52 62 -71 14 -20 32 -39 42 -42
9 -3 19 -18 23 -33 11 -43 45 -58 45 -19 0 35 9 38 51 16 25 -12 41 -29 45
-46 4 -15 18 -42 31 -61 27 -41 25 -46 -11 -32 -16 6 -31 22 -37 39 -12 35
-48 48 -67 24 -7 -10 -10 -23 -8 -30 14 -36 -31 7 -61 60 -12 20 -20 43 -17
50 5 14 -100 110 -110 100 -3 -3 3 -21 14 -39 12 -18 17 -35 12 -38 -11 -6
-62 30 -62 44 0 5 -5 21 -12 37 -6 15 -12 30 -13 33 -9 40 -42 121 -56 140
-12 19 -15 30 -8 43 14 23 29 12 29 -21z m70 29 c0 -5 3 -17 7 -27 9 -23 -13
-10 -27 17 -9 15 -7 19 5 19 8 0 15 -4 15 -9z m-1570 -47 c0 -19 -16 -18 -24
2 -11 27 -7 37 9 24 8 -7 15 -19 15 -26z m1365 -22 c6 -22 20 -54 32 -70 25
-34 40 -82 26 -82 -5 0 -20 11 -33 25 -13 14 -30 24 -38 23 -21 -4 -34 47 -26
105 7 58 25 58 39 -1z m2208 21 c-3 -10 -14 -27 -23 -38 -10 -11 -23 -31 -30
-45 -7 -14 -21 -31 -32 -38 -10 -7 -18 -19 -18 -27 0 -7 -9 -17 -20 -20 -11
-3 -20 -11 -20 -17 0 -6 -25 -40 -55 -75 -30 -36 -55 -68 -55 -73 0 -4 -17
-20 -37 -36 -37 -27 -36 -26 13 31 27 33 72 89 100 125 27 36 54 70 60 75 18
16 94 133 94 144 0 6 7 11 15 11 9 0 12 -6 8 -17z m-3527 -69 c25 -52 11 -64
-19 -17 -15 24 -27 47 -27 52 0 21 31 -3 46 -35z m1094 0 c0 -8 -4 -12 -10 -9
-5 3 -10 10 -10 16 0 5 5 9 10 9 6 0 10 -7 10 -16z m337 -15 c7 -13 20 -42 28
-64 9 -22 27 -64 41 -93 13 -29 24 -59 24 -67 0 -8 10 -23 22 -35 18 -16 19
-20 6 -20 -18 0 -68 68 -86 116 -58 156 -70 195 -59 191 6 -2 17 -14 24 -28z
m-567 5 c0 -8 -4 -12 -10 -9 -5 3 -10 10 -10 16 0 5 5 9 10 9 6 0 10 -7 10
-16z m820 -38 c106 -87 210 -125 355 -130 115 -4 118 -31 4 -34 -67 -2 -183
33 -251 75 -21 13 -42 23 -48 23 -9 0 -22 10 -105 84 -63 56 -26 42 45 -18z
m484 -28 c18 -25 20 -38 7 -38 -15 0 -41 30 -41 46 0 21 17 17 34 -8z m132
-15 c-7 -7 -26 7 -26 19 0 6 6 6 15 -2 9 -7 13 -15 11 -17z m-946 -75 c11 -18
20 -36 20 -40 0 -13 -65 -9 -78 4 -16 16 -15 55 1 61 26 11 38 6 57 -25z
m-275 -58 c-5 -8 -11 -8 -17 -2 -6 6 -7 16 -3 22 5 8 11 8 17 2 6 -6 7 -16 3
-22z m552 -15 c3 -9 3 -19 -1 -22 -7 -7 -36 16 -36 28 0 15 30 10 37 -6z m298
-45 c10 -22 33 -57 51 -77 39 -44 42 -59 14 -66 -11 -3 -20 0 -20 5 0 6 -23
46 -50 90 -48 74 -56 104 -26 92 7 -3 21 -23 31 -44z m290 29 c0 -8 -10 -15
-22 -17 -26 -4 -29 2 -10 23 14 17 32 14 32 -6z m-1805 -9 c0 -5 -7 -10 -15
-10 -8 0 -15 5 -15 10 0 6 7 10 15 10 8 0 15 -4 15 -10z m1660 1 c0 -5 3 -16
6 -25 8 -20 -6 -21 -31 -3 -10 8 -15 19 -11 25 9 14 36 16 36 3z m287 -8 c-4
-3 -7 0 -7 7 0 7 3 10 7 7 3 -4 3 -10 0 -14z m-1752 -23 c-5 -17 0 -20 44 -26
62 -8 69 -28 9 -21 -53 5 -90 22 -106 48 -11 17 -9 19 24 19 31 0 35 -3 29
-20z m1410 -16 c14 -15 25 -31 25 -35 0 -10 -64 27 -80 47 -23 27 29 16 55
-12z m-1751 -32 c10 -13 25 -21 33 -18 8 4 17 -4 24 -22 11 -29 31 -49 94 -89
45 -28 65 -50 65 -71 0 -15 -20 0 -118 85 -100 88 -142 129 -142 142 0 16 19
4 44 -27z m1156 20 c0 -22 -31 -39 -85 -46 -22 -3 -64 -8 -94 -12 -39 -5 -52
-4 -47 5 4 6 16 11 27 11 12 0 23 10 29 25 8 22 16 24 77 28 37 2 74 4 81 5 6
1 12 -6 12 -16z m-877 -12 c-3 -11 -1 -20 3 -21 5 -1 38 -2 74 -4 135 -7 190
-16 190 -31 0 -8 -6 -14 -12 -13 -34 4 -78 -2 -78 -11 0 -5 7 -10 15 -10 8 0
15 -4 15 -10 0 -5 -20 -10 -45 -10 -25 0 -45 5 -45 10 0 6 9 10 20 10 25 0 26
17 2 24 -10 4 -54 8 -98 11 -70 3 -81 7 -101 30 -33 37 -29 45 21 45 39 0 44
-2 39 -20z m1807 1 c16 -30 -12 -51 -69 -51 -26 0 -52 -5 -58 -11 -7 -7 -23
-9 -38 -5 -23 6 -26 11 -20 34 10 41 32 52 107 52 56 0 69 -3 78 -19z m-1590
-1 c0 -5 -4 -10 -9 -10 -6 0 -13 5 -16 10 -3 6 1 10 9 10 9 0 16 -4 16 -10z
m401 -36 c12 -14 11 -16 -5 -13 -11 2 -21 10 -24 17 -5 17 13 15 29 -4z m1726
9 c-4 -3 -10 -3 -14 0 -3 4 0 7 7 7 7 0 10 -3 7 -7z m-1978 -22 c7 -5 9 -11 4
-14 -13 -8 -53 3 -53 14 0 11 31 11 49 0z m1921 -31 c-19 -12 -47 -13 -54 -1
-8 13 47 31 59 19 6 -6 5 -12 -5 -18z m-1123 -7 c-4 -3 -7 0 -7 7 0 7 3 10 7
7 3 -4 3 -10 0 -14z m-1137 -13 c0 -12 -24 -12 -60 0 -21 7 -19 8 18 9 23 1
42 -3 42 -9z m340 1 c0 -10 -98 -23 -112 -15 -4 3 -6 10 -3 15 8 11 115 12
115 0z m748 -3 c7 -7 12 -20 12 -30 0 -15 -8 -18 -42 -18 -53 0 -75 12 -56 28
9 7 19 8 28 2 26 -16 43 -12 37 10 -6 23 3 26 21 8z m499 -4 c13 -4 20 -10 17
-15 -8 -13 -28 -11 -50 6 -21 16 -8 20 33 9z m73 -4 c20 -12 9 -21 -18 -13
-12 3 -19 9 -16 14 7 11 15 11 34 -1z m-1273 -6 c-3 -3 -12 -4 -19 -1 -8 3 -5
6 6 6 11 1 17 -2 13 -5z m501 -1 c18 -4 20 -8 10 -14 -18 -12 -95 -11 -102 0
-11 18 46 27 92 14z m997 -3 c4 -6 -7 -10 -24 -10 -17 0 -31 5 -31 10 0 6 11
10 24 10 14 0 28 -4 31 -10z m163 2 c17 -1 32 -6 32 -12 0 -9 -40 -11 -98 -3
-39 5 -35 19 5 17 15 0 43 -2 61 -2z m327 -13 c0 -16 -32 -17 -136 -6 -37 4
-77 4 -90 -1 -13 -5 -33 -6 -44 -3 -42 10 81 29 175 27 74 -2 95 -6 95 -17z
m124 -8 c-26 -21 -35 -20 -26 4 4 8 16 15 28 15 21 0 21 0 -2 -19z m-1304 -1
c-3 -5 -15 -10 -26 -10 -10 0 -19 5 -19 10 0 6 12 10 26 10 14 0 23 -4 19 -10z
m520 -16 c50 -4 121 -7 159 -8 38 -1 71 -6 73 -12 2 -6 -24 -9 -69 -7 -40 1
-131 3 -203 3 -184 2 -368 15 -391 28 -20 11 252 9 431 -4z m-1670 -14 c25 -6
56 -5 84 1 32 7 47 6 59 -3 10 -9 64 -14 181 -16 210 -3 464 -17 478 -25 5 -4
181 -7 389 -8 208 0 387 -5 396 -10 21 -11 397 -15 449 -4 30 6 39 3 47 -12
10 -17 12 -17 35 5 32 30 61 26 65 -9 3 -22 -2 -27 -40 -38 -24 -7 -45 -16
-48 -20 -3 -3 -30 -18 -60 -33 -30 -16 -62 -32 -70 -37 -8 -5 -40 -17 -70 -26
-30 -10 -75 -27 -100 -38 -46 -20 -196 -62 -285 -79 -27 -5 -70 -14 -95 -19
-25 -6 -128 -13 -230 -16 -178 -5 -216 -2 -330 27 -25 6 -76 16 -115 21 -110
14 -145 21 -151 30 -3 5 -18 9 -34 9 -31 0 -159 47 -221 80 -20 11 -43 20 -51
20 -8 0 -23 9 -33 20 -10 11 -28 20 -41 20 -34 0 -73 19 -124 61 -25 20 -67
48 -95 63 -84 46 -81 57 10 36z m2004 -5 c11 -11 -10 -15 -48 -9 -22 4 -41 11
-41 17 0 9 78 2 89 -8z m251 -2 c3 -3 -20 -4 -50 -2 -30 1 -76 -2 -102 -6 -26
-4 -53 -3 -60 1 -18 12 71 22 147 16 33 -3 62 -7 65 -9z m118 -33 c-7 -11 -16
-20 -21 -20 -4 0 -3 9 3 20 6 11 15 20 20 20 6 0 5 -9 -2 -20z m-2410 -60 c45
-42 40 -46 -13 -10 -25 17 -45 33 -45 35 0 14 29 1 58 -25z m2308 -25 c-9 -7
-16 -17 -16 -23 0 -6 -14 -14 -32 -17 -17 -4 -53 -22 -79 -41 -31 -21 -54 -31
-68 -27 -14 3 -23 0 -27 -11 -3 -9 -17 -16 -29 -16 -14 0 -26 -7 -30 -19 -4
-13 -12 -17 -30 -13 -34 6 -31 17 13 43 20 13 42 28 47 34 6 6 42 22 80 34 39
13 79 30 90 37 11 8 27 14 36 14 9 0 24 9 35 21 12 14 20 17 23 8 2 -7 -4 -18
-13 -24z m-2167 -62 c57 -44 222 -122 301 -143 23 -6 50 -16 59 -20 32 -18
112 -40 145 -40 18 0 36 -3 40 -7 8 -8 137 -28 250 -38 32 -3 77 -9 100 -14
22 -4 102 -3 176 1 74 5 167 10 205 12 39 2 86 8 105 14 36 11 90 12 90 1 0
-4 -33 -14 -72 -24 -40 -9 -84 -22 -97 -28 -39 -19 -411 -15 -561 6 -69 10
-134 22 -145 26 -40 16 -91 30 -135 36 -25 3 -54 10 -65 14 -11 5 -45 16 -75
26 -30 10 -91 35 -135 56 -44 21 -93 41 -109 45 -30 7 -140 76 -151 94 -13 21
39 9 74 -17z m1789 -134 c-2 -6 -19 -17 -38 -24 -19 -7 -60 -23 -90 -35 -30
-13 -68 -24 -85 -25 -16 -2 -43 -6 -58 -10 -15 -4 -31 -4 -35 -1 -9 10 19 26
48 26 26 1 216 62 227 74 11 10 35 7 31 -5z"/>
<path d="M2491 4701 c-23 -14 -5 -38 33 -45 46 -9 61 -35 41 -73 -8 -15 -15
-53 -15 -84 0 -77 -17 -122 -42 -115 -27 6 -68 -10 -68 -27 0 -21 195 -68 219
-52 19 11 12 36 -14 57 -18 14 -25 29 -25 51 1 35 22 122 32 132 4 4 4 22 1
41 -7 40 9 64 42 64 13 0 25 6 28 13 2 8 -24 17 -87 29 -107 19 -126 21 -145
9z"/>
<path d="M1815 4668 c-27 -5 -68 -13 -90 -19 -22 -6 -52 -13 -68 -16 -31 -6
-44 -20 -30 -34 6 -6 19 -6 34 1 17 8 33 8 52 1 22 -9 27 -17 27 -43 0 -18 7
-46 15 -62 8 -15 15 -42 15 -60 0 -17 4 -38 10 -46 6 -10 3 -25 -11 -47 -20
-32 -20 -32 0 -43 16 -8 37 -5 93 12 45 13 95 21 131 21 51 -2 57 0 57 18 0
42 -58 110 -68 80 -9 -28 -41 -52 -74 -57 -33 -6 -38 -3 -52 23 -8 17 -24 65
-35 108 -12 43 -28 86 -36 95 -22 24 -10 29 57 24 46 -3 64 -10 78 -26 35 -44
64 -1 38 57 -9 21 -17 25 -52 24 -23 -1 -63 -6 -91 -11z"/>
<path d="M2755 4650 c-4 -7 0 -26 8 -43 9 -18 19 -44 22 -59 5 -28 30 -38 37
-15 2 6 4 37 3 67 0 54 0 55 -32 58 -17 2 -34 -2 -38 -8z"/>
<path d="M1535 4596 c-56 -18 -87 -35 -80 -47 4 -5 14 -9 23 -9 19 -1 68 -63
101 -127 30 -61 28 -99 -10 -134 -17 -16 -35 -29 -40 -29 -18 0 -46 34 -98
119 -47 76 -50 85 -36 101 20 22 19 37 -5 50 -12 6 -20 7 -20 1 0 -5 -13 -12
-30 -16 -16 -4 -33 -11 -36 -16 -3 -6 -16 -14 -29 -19 -13 -5 -29 -18 -35 -29
-8 -17 -7 -22 11 -31 15 -9 24 -8 36 2 13 11 18 9 29 -7 8 -11 30 -40 49 -65
19 -25 42 -62 51 -83 31 -71 88 -95 142 -58 15 10 39 26 54 35 38 22 43 54 20
107 -34 76 -52 129 -52 152 0 13 -5 28 -12 35 -9 9 -7 12 10 12 28 0 48 36 31
56 -14 17 -21 17 -74 0z"/>
<path d="M2979 4595 c-12 -11 3 -45 27 -64 22 -17 22 -20 9 -59 -18 -50 -113
-172 -135 -172 -9 0 -19 -3 -23 -6 -8 -9 3 -34 16 -34 6 0 39 -12 75 -26 76
-30 84 -26 88 49 4 66 32 133 73 171 17 16 32 28 33 25 17 -26 28 -51 28 -58
0 -16 -42 -51 -62 -51 -20 0 -23 -21 -9 -49 7 -12 5 -27 -5 -46 -8 -16 -13
-36 -12 -44 1 -9 -1 -22 -5 -28 -10 -17 79 -113 104 -113 22 0 26 39 7 58 -7
7 -12 46 -12 102 -1 75 2 90 15 90 26 0 51 25 65 66 8 21 14 42 14 45 0 7
-107 89 -116 89 -3 0 -29 11 -58 25 -58 27 -108 40 -117 30z"/>
<path d="M1865 4550 c-7 -11 13 -90 27 -107 6 -7 19 -13 30 -13 22 0 21 2 -3
70 -6 19 -13 41 -15 48 -4 14 -30 16 -39 2z"/>
<path d="M2695 4497 c-22 -34 -17 -72 10 -72 16 0 21 8 23 39 4 51 -11 66 -33
33z"/>
<path d="M1074 4309 c-44 -12 -124 -111 -124 -151 0 -55 23 -112 59 -151 42
-45 72 -63 123 -72 20 -4 39 -13 42 -21 3 -8 12 -14 20 -14 9 0 23 -12 33 -27
9 -16 18 -30 20 -32 6 -9 53 45 53 61 0 26 35 41 61 27 30 -16 92 4 113 36 29
44 23 47 -84 43 -55 -1 -100 0 -100 3 0 4 7 20 15 35 8 16 15 48 15 70 0 34
-8 51 -42 93 -48 58 -121 111 -152 110 -12 0 -35 -5 -52 -10z m43 -71 c34 -15
93 -68 93 -85 0 -7 11 -24 25 -39 30 -32 30 -32 9 -73 -18 -36 -56 -55 -92
-46 -37 9 -137 109 -149 149 -9 28 -7 40 8 64 10 17 28 32 41 35 13 2 26 5 30
6 4 0 20 -4 35 -11z"/>
<path d="M3530 4173 c-25 -15 -87 -44 -139 -65 -73 -29 -98 -35 -118 -27 -61
23 -70 0 -19 -50 50 -48 91 -40 110 22 4 12 16 17 47 17 29 0 39 -4 35 -12 -3
-7 -9 -21 -12 -30 -7 -19 -12 -21 -54 -22 -20 -1 -26 -7 -28 -32 -3 -30 5 -42
90 -143 30 -35 47 -11 51 71 3 55 10 77 40 128 20 34 37 63 37 66 0 2 12 22
26 44 43 64 11 79 -66 33z"/>
<path d="M807 4052 c-9 -10 -17 -24 -17 -31 0 -7 -11 -22 -24 -32 -62 -48 -66
-123 -6 -93 25 13 33 13 64 0 20 -8 57 -30 82 -48 26 -18 58 -40 73 -49 22
-13 25 -22 23 -52 -3 -29 0 -37 13 -37 8 0 18 8 22 18 3 9 21 32 40 50 18 18
33 39 33 47 0 23 -30 33 -61 22 -24 -10 -33 -7 -73 24 -24 19 -70 50 -100 68
-53 33 -69 55 -46 63 14 4 18 60 4 65 -6 2 -18 -5 -27 -15z"/>
<path d="M3805 3948 c-2 -7 -7 -31 -12 -52 -9 -42 -22 -53 -118 -101 -53 -26
-113 -33 -132 -14 -6 6 -20 8 -32 4 -27 -8 -28 -44 -2 -76 10 -13 21 -34 25
-46 12 -36 41 -28 58 16 9 23 27 44 44 53 57 30 80 43 112 66 27 20 32 21 32
7 0 -9 -13 -35 -28 -58 -16 -23 -36 -59 -45 -79 -10 -20 -22 -40 -28 -43 -13
-9 -54 -75 -63 -102 -6 -20 -4 -23 20 -23 15 0 35 7 43 14 17 16 145 72 196
86 17 5 39 12 51 15 17 5 22 0 30 -32 7 -29 15 -39 33 -41 22 -4 23 -2 18 35
-8 45 -49 149 -66 166 -17 17 -40 -16 -33 -48 4 -21 -2 -27 -39 -43 -96 -42
-95 -43 -50 47 22 44 47 83 54 88 8 4 20 18 26 31 12 23 3 51 -41 121 -14 23
-46 28 -53 9z"/>
<path d="M834 3699 c-18 -20 -18 -21 12 -47 32 -28 37 -52 20 -101 -7 -21 -12
-23 -52 -17 -45 6 -134 47 -155 72 -6 8 -20 14 -31 14 -16 0 -19 5 -16 24 6
30 -15 41 -36 20 -9 -8 -21 -34 -28 -57 -7 -23 -18 -47 -25 -52 -16 -12 -22
-63 -8 -66 5 -1 17 11 26 27 18 34 44 40 79 20 46 -27 149 -76 159 -76 5 0 11
-15 13 -32 6 -62 78 -44 78 20 0 13 7 30 15 38 8 9 15 24 15 34 0 10 5 22 10
25 21 13 61 87 58 108 -3 22 -45 50 -89 61 -19 4 -31 0 -45 -15z"/>
<path d="M504 3381 c-11 -10 -30 -24 -42 -30 -13 -7 -22 -21 -22 -36 0 -13 -4
-26 -9 -29 -5 -3 -12 -31 -16 -63 -4 -31 -11 -67 -16 -81 -8 -21 -6 -23 13
-20 15 2 24 11 26 26 3 21 7 22 55 16 29 -4 56 -10 61 -15 6 -5 31 -9 57 -9
30 0 61 -8 83 -21 19 -11 45 -19 58 -17 21 3 23 9 24 61 1 40 7 64 20 78 15
17 16 24 5 59 -13 44 -29 56 -90 66 -35 6 -44 3 -61 -17 l-20 -24 -17 21 c-15
18 -72 54 -86 54 -2 0 -12 -8 -23 -19z m67 -83 c29 -33 30 -33 60 -16 32 19
89 15 89 -7 0 -7 7 -18 15 -25 8 -7 15 -23 15 -36 0 -19 -7 -24 -35 -30 -43
-8 -84 2 -233 58 -46 17 -10 87 46 88 7 0 26 -15 43 -32z"/>
<path d="M3856 3370 c-84 -32 -125 -85 -125 -161 -1 -73 6 -156 14 -169 14
-22 165 20 165 45 0 20 -29 45 -51 45 -11 0 -33 7 -49 15 -24 12 -30 22 -30
48 0 19 10 42 23 57 41 47 214 77 262 46 32 -21 35 -20 35 7 0 46 -75 88 -154
86 -23 0 -63 -9 -90 -19z"/>
<path d="M4094 3223 c-11 -35 -21 -46 -55 -64 -18 -10 -40 -23 -47 -29 -32
-29 28 -40 99 -18 l39 11 0 59 c0 45 -3 58 -15 58 -9 0 -18 -8 -21 -17z"/>
<path d="M3487 3195 c-9 -9 -17 -19 -17 -23 1 -33 71 -64 158 -70 l72 -5 0 30
c0 35 -11 46 -60 61 -71 23 -135 25 -153 7z"/>
<path d="M380 3026 c-7 -25 -9 -49 -5 -55 12 -20 34 -12 41 14 6 25 8 26 66
19 77 -9 77 11 1 35 -28 9 -55 20 -59 24 -17 17 -32 4 -44 -37z"/>
<path d="M630 2965 c0 -14 5 -34 12 -45 20 -32 -14 -60 -71 -59 -84 1 -153 15
-167 33 -17 24 -30 14 -38 -29 -3 -19 -9 -50 -12 -68 -7 -41 16 -68 41 -47 8
7 15 19 15 28 0 13 16 14 119 9 66 -4 127 -4 136 -1 27 11 45 60 45 122 0 65
-11 82 -52 82 -23 0 -28 -4 -28 -25z"/>
<path d="M3774 2956 c-3 -7 -2 -40 3 -71 9 -66 30 -88 63 -67 21 13 84 8 105
-8 6 -5 25 -10 44 -12 47 -4 48 -20 3 -39 -20 -9 -55 -25 -77 -35 -53 -24 -58
-24 -65 6 -8 35 -42 33 -54 -3 -7 -20 -6 -49 6 -103 8 -41 11 -77 7 -80 -5 -3
-9 -19 -9 -37 0 -18 -3 -59 -6 -92 -5 -52 -3 -63 15 -79 25 -22 41 -13 41 23
0 16 6 33 13 39 15 12 97 16 207 9 67 -4 75 -7 78 -26 2 -13 11 -21 23 -21 17
0 19 8 19 81 0 90 -12 128 -36 108 -8 -6 -14 -17 -14 -24 0 -22 -240 -49 -280
-31 -8 3 -16 21 -17 39 -2 26 4 39 25 58 15 13 31 22 36 21 5 -2 17 5 27 13
11 11 25 14 38 10 12 -4 22 -2 22 4 1 6 2 16 3 23 0 7 12 18 24 24 13 6 29 17
35 23 6 6 18 11 27 11 8 0 31 13 50 29 29 25 32 31 21 45 -7 9 -21 16 -30 16
-9 0 -40 9 -70 20 -29 10 -74 22 -100 25 -73 10 -82 15 -97 48 -27 62 -66 88
-80 53z m193 -303 c-4 -3 -10 -3 -14 0 -3 4 0 7 7 7 7 0 10 -3 7 -7z"/>
<path d="M399 2695 c-48 -26 -62 -94 -47 -228 9 -81 14 -97 27 -95 11 3 16 14
15 35 -2 31 -1 32 50 37 28 3 67 4 86 3 19 -2 52 -4 72 -5 31 -2 39 -6 44 -27
3 -13 12 -29 20 -36 20 -17 34 28 34 111 0 81 -6 100 -31 100 -14 0 -19 -7
-19 -30 0 -18 -7 -33 -17 -38 -26 -14 -239 -10 -253 4 -13 13 2 50 29 71 23
18 81 16 103 -4 13 -12 22 -13 29 -6 18 18 0 70 -33 98 -33 28 -70 31 -109 10z"/>
<path d="M618 2329 c-25 -14 -22 -34 5 -46 24 -11 57 -67 57 -97 0 -19 -38
-36 -79 -36 -15 0 -31 -3 -35 -7 -4 -4 -41 -8 -83 -8 l-75 0 6 45 c4 33 13 52
36 71 39 34 41 62 3 53 -86 -21 -78 -12 -75 -100 1 -43 6 -110 10 -149 6 -61
10 -70 27 -70 16 0 21 8 23 41 3 35 7 42 25 43 12 1 66 4 119 7 l98 6 11 -26
c14 -30 27 -33 36 -10 7 19 -15 237 -28 271 -9 25 -49 31 -81 12z"/>
<path d="M3796 2249 c-25 -20 -30 -51 -27 -174 1 -42 18 -85 33 -85 5 0 16 -7
24 -15 9 -9 34 -15 60 -15 58 0 103 39 118 101 8 33 18 47 40 58 35 16 57 6
71 -33 13 -37 -10 -76 -58 -99 -63 -30 -45 -57 39 -57 37 0 44 3 48 23 2 12
11 54 19 92 15 65 14 72 -1 100 -10 17 -34 38 -55 48 -33 17 -43 17 -87 6 -31
-8 -50 -18 -50 -27 0 -43 -81 -132 -119 -132 -11 0 -25 66 -22 97 1 13 16 36
32 52 32 32 35 44 17 58 -26 20 -58 21 -82 2z"/>
<path d="M530 2235 c-19 -7 -36 -19 -38 -28 -4 -21 112 -22 129 -1 25 31 -35
50 -91 29z"/>
<path d="M696 1976 c-24 -20 -26 -26 -15 -43 11 -18 7 -25 -36 -67 l-49 -46
-22 21 c-18 17 -29 19 -68 14 -30 -5 -50 -14 -56 -26 -20 -37 -8 -137 31 -256
15 -45 39 -43 39 2 0 20 5 37 13 39 6 2 30 9 52 16 22 7 67 14 100 15 33 0 66
4 73 9 7 4 14 0 18 -11 14 -42 29 -64 43 -61 24 5 25 36 2 82 -11 22 -25 60
-31 84 -12 46 -34 56 -44 18 -8 -32 -58 -51 -166 -63 -25 -3 -51 -10 -57 -15
-36 -29 -57 27 -27 71 16 22 22 23 80 18 63 -6 88 2 173 60 7 5 4 141 -4 152
-9 16 -19 14 -49 -13z"/>
<path d="M3732 1910 c-6 -11 -12 -37 -12 -57 0 -21 -9 -67 -20 -101 -11 -35
-20 -81 -20 -102 0 -32 4 -39 26 -44 15 -4 33 -14 41 -22 17 -16 44 -15 50 2
2 6 -10 30 -27 55 -32 48 -38 85 -16 114 11 15 21 17 62 11 26 -3 53 -11 58
-16 6 -6 24 -10 41 -10 41 0 106 -24 116 -43 19 -32 -29 -97 -72 -97 -9 0 -24
-9 -34 -20 -27 -30 -5 -50 56 -50 40 0 51 4 64 23 16 25 75 243 75 277 0 31
-36 25 -52 -7 -20 -43 -95 -41 -180 3 -14 8 -35 14 -46 14 -29 0 -54 28 -46
52 11 37 -42 52 -64 18z"/>
<path d="M3800 1702 c0 -10 11 -24 25 -30 14 -7 36 -17 48 -23 13 -6 39 -11
58 -12 28 -2 35 2 37 21 2 14 -3 24 -15 28 -10 3 -32 12 -50 20 -17 8 -47 14
-67 14 -28 0 -36 -4 -36 -18z"/>
<path d="M3602 1468 c-11 -13 -24 -36 -28 -52 -6 -23 -2 -32 22 -52 58 -47
124 -17 124 57 0 28 -6 42 -22 53 -32 23 -71 20 -96 -6z"/>
<path d="M2066 2902 c-3 -5 -1 -34 3 -66 14 -103 62 -113 75 -16 8 63 -5 90
-44 90 -16 0 -31 -4 -34 -8z"/>
<path d="M2343 2303 c4 -3 10 -3 14 0 3 4 0 7 -7 7 -7 0 -10 -3 -7 -7z"/>
</g>
</svg>
