<svg width="2430" height="1198" viewBox="0 0 2430 1198" fill="none" xmlns="http://www.w3.org/2000/svg">
<g style="mix-blend-mode:multiply">
<path d="M204.433 767.022C219.264 615.077 431.686 685.367 445.804 784.521C469.818 953.172 191.574 898.756 204.433 767.022Z" fill="#FDCD6D"/>
</g>
<g style="mix-blend-mode:multiply">
<path d="M551.263 877.674C514.01 893.792 472.507 902.746 431.229 847.958C389.951 793.169 343.258 695.48 346.985 620.864C350.711 546.248 368.53 527.918 426.238 509.808C478.858 493.294 493.985 509.808 509.2 536.509C524.414 563.21 510.948 594.044 544.103 667.244C569.908 724.217 591.536 725.448 608.54 772.011C625.545 818.574 584.376 863.347 551.263 877.674Z" fill="url(#paint0_linear_47_416)"/>
</g>
<g style="mix-blend-mode:multiply">
<path d="M651.409 889.574C602.534 896.308 552.836 822.035 533.092 744.555C513.349 667.075 504.047 501.091 523.494 432.555C542.941 364.02 555.411 350.943 613.784 341.474C672.156 332.004 706.851 404.319 724.878 476.634C742.905 548.948 741.277 688.966 734.321 788.141C727.365 887.316 675.505 886.255 651.409 889.574Z" fill="url(#paint1_linear_47_416)"/>
</g>
<g style="mix-blend-mode:multiply">
<path d="M696.164 408.013C696.164 351.673 741.831 306 798.164 306C854.497 306 900.164 351.673 900.164 408.013V787.987C900.164 844.327 854.497 890 798.164 890C741.831 890 696.164 844.327 696.164 787.987V408.013Z" fill="url(#paint2_linear_47_416)"/>
</g>
<path d="M1183.39 515.317C1207.48 515.317 1226.45 503.593 1238.5 486.457L1272.22 512.311C1252.95 538.466 1221.63 555.301 1183.39 555.301C1116.85 555.301 1071.38 504.194 1071.38 444.069C1071.38 383.943 1116.85 332.836 1183.39 332.836C1221.63 332.836 1252.95 349.972 1272.22 375.525L1238.5 401.68C1226.45 384.544 1207.48 372.82 1183.39 372.82C1143.65 372.82 1115.34 403.784 1115.34 444.069C1115.34 484.353 1143.65 515.317 1183.39 515.317Z" fill="black"/>
<path d="M1373.54 391.759C1422.92 391.759 1456.64 428.135 1456.64 473.53C1456.64 518.925 1422.92 555.301 1373.54 555.301C1324.15 555.301 1290.43 518.925 1290.43 473.53C1290.43 428.135 1324.15 391.759 1373.54 391.759ZM1374.14 519.226C1398.53 519.226 1416.9 499.685 1416.9 473.53C1416.9 447.075 1398.53 427.835 1374.14 427.835C1348.85 427.835 1330.18 447.075 1330.18 473.53C1330.18 499.985 1348.85 519.226 1374.14 519.226Z" fill="black"/>
<path d="M1491.52 549.288V397.772H1529.77V409.196C1540 399.275 1552.95 391.759 1571.62 391.759C1590.89 391.759 1607.75 400.177 1617.69 416.411C1628.53 403.183 1642.98 391.759 1668.58 391.759C1699.9 391.759 1724.59 413.404 1724.59 456.094V549.288H1686.04V457.597C1686.04 439.258 1676.11 427.835 1658.94 427.835C1642.38 427.835 1633.35 439.258 1627.33 449.48C1627.63 451.584 1627.63 453.689 1627.63 456.094V549.288H1589.09V457.597C1589.09 439.258 1579.15 427.835 1561.98 427.835C1544.52 427.835 1535.49 440.762 1529.77 450.382V549.288H1491.52Z" fill="black"/>
<path d="M1768.23 623.243V397.772H1806.47V410.098C1818.22 398.373 1832.97 391.759 1853.75 391.759C1901.93 391.759 1930.83 429.338 1930.83 473.53C1930.83 517.722 1901.93 555.301 1853.75 555.301C1832.97 555.301 1818.22 548.687 1806.47 536.963V623.243H1768.23ZM1848.33 427.835C1830.56 427.835 1816.11 435.651 1806.47 449.78V497.28C1816.71 511.71 1830.86 519.226 1848.33 519.226C1874.22 519.226 1891.09 499.985 1891.09 473.53C1891.09 447.075 1874.22 427.835 1848.33 427.835Z" fill="black"/>
<path d="M1965.84 549.288V323.817H2004.08V549.288H1965.84Z" fill="black"/>
<path d="M1062.95 854.497L1142.74 644.057H1198.75L1278.54 854.497H1233.08L1212.9 799.783H1128.59L1108.42 854.497H1062.95ZM1141.84 763.407H1199.65L1170.75 684.341L1141.84 763.407Z" fill="black"/>
<path d="M1318.83 854.497V629.026H1357.07V854.497H1318.83Z" fill="black"/>
<path d="M1427.82 676.525C1414.27 676.525 1402.83 665.101 1402.83 651.573C1402.83 638.045 1414.27 626.621 1427.82 626.621C1441.37 626.621 1452.51 638.045 1452.51 651.573C1452.51 665.101 1441.37 676.525 1427.82 676.525ZM1408.55 854.497V702.98H1446.79V854.497H1408.55Z" fill="black"/>
<path d="M1493.36 854.497V702.98H1531.6V714.404C1541.84 704.483 1554.78 696.968 1573.45 696.968C1592.72 696.968 1609.59 705.385 1619.52 721.619C1630.36 708.392 1644.82 696.968 1670.41 696.968C1701.73 696.968 1726.42 718.613 1726.42 761.302V854.497H1687.88V762.805C1687.88 744.467 1677.94 733.043 1660.78 733.043C1644.21 733.043 1635.18 744.467 1629.16 754.688C1629.46 756.793 1629.46 758.897 1629.46 761.302V854.497H1590.92V762.805C1590.92 744.467 1580.98 733.043 1563.82 733.043C1546.35 733.043 1537.32 745.97 1531.6 755.59V854.497H1493.36Z" fill="black"/>
<path d="M2089.07 410.398H2053.54L2080.64 323.817H2124L2089.07 410.398Z" fill="black"/>
<defs>
<linearGradient id="paint0_linear_47_416" x1="622.861" y1="514.123" x2="223.504" y2="891.785" gradientUnits="userSpaceOnUse">
<stop offset="0.292447" stop-color="#D9D9F2"/>
<stop offset="1" stop-color="#FDCD6D"/>
</linearGradient>
<linearGradient id="paint1_linear_47_416" x1="861.486" y1="397.003" x2="199.532" y2="863.639" gradientUnits="userSpaceOnUse">
<stop offset="0.433088" stop-color="#A4A4EA"/>
<stop offset="1" stop-color="#FDCD6D"/>
</linearGradient>
<linearGradient id="paint2_linear_47_416" x1="1276.85" y1="334.173" x2="248.706" y2="975.872" gradientUnits="userSpaceOnUse">
<stop offset="0.460648" stop-color="#6A6AF4"/>
<stop offset="0.877322" stop-color="#FDCD6D"/>
</linearGradient>
</defs>
</svg>
